<mxfile host="65bd71144e">
    <diagram id="0uxnMQfXYZ1KZ6hbuFaN" name="Страница 1">
        <mxGraphModel dx="562" dy="609" grid="1" gridSize="10" guides="1" tooltips="1" connect="1" arrows="1" fold="1" page="1" pageScale="1" pageWidth="1169" pageHeight="827" math="0" shadow="0">
            <root>
                <mxCell id="0"/>
                <mxCell id="1" parent="0"/>
                <mxCell id="2" value="&lt;p style=&quot;margin: 0px ; margin-top: 4px ; text-align: center&quot;&gt;&lt;i&gt;&amp;lt;&amp;lt;Interface&amp;gt;&amp;gt;&lt;/i&gt;&lt;br&gt;&lt;b&gt;IHandler&lt;/b&gt;&lt;/p&gt;&lt;hr size=&quot;1&quot;&gt;&lt;p style=&quot;margin: 0px ; margin-left: 4px&quot;&gt;+ setNext(handler: IHandler): IHandler&lt;/p&gt;&lt;p style=&quot;margin: 0px ; margin-left: 4px&quot;&gt;+ handle(request): string&lt;/p&gt;" style="verticalAlign=top;align=left;overflow=fill;fontSize=12;fontFamily=Helvetica;html=1;" vertex="1" parent="1">
                    <mxGeometry x="270" y="90" width="220" height="90" as="geometry"/>
                </mxCell>
                <mxCell id="3" value="BaseHandler" style="swimlane;fontStyle=1;align=center;verticalAlign=top;childLayout=stackLayout;horizontal=1;startSize=26;horizontalStack=0;resizeParent=1;resizeParentMax=0;resizeLast=0;collapsible=1;marginBottom=0;" vertex="1" parent="1">
                    <mxGeometry x="252.5" y="230" width="255" height="100" as="geometry"/>
                </mxCell>
                <mxCell id="4" value="- next: IHandler" style="text;strokeColor=none;fillColor=none;align=left;verticalAlign=top;spacingLeft=4;spacingRight=4;overflow=hidden;rotatable=0;points=[[0,0.5],[1,0.5]];portConstraint=eastwest;" vertex="1" parent="3">
                    <mxGeometry y="26" width="255" height="26" as="geometry"/>
                </mxCell>
                <mxCell id="5" value="" style="line;strokeWidth=1;fillColor=none;align=left;verticalAlign=middle;spacingTop=-1;spacingLeft=3;spacingRight=3;rotatable=0;labelPosition=right;points=[];portConstraint=eastwest;" vertex="1" parent="3">
                    <mxGeometry y="52" width="255" height="8" as="geometry"/>
                </mxCell>
                <mxCell id="6" value="+ setNext(handler: IHandler)&#10;+ handle(request)" style="text;strokeColor=none;fillColor=none;align=left;verticalAlign=top;spacingLeft=4;spacingRight=4;overflow=hidden;rotatable=0;points=[[0,0.5],[1,0.5]];portConstraint=eastwest;" vertex="1" parent="3">
                    <mxGeometry y="60" width="255" height="40" as="geometry"/>
                </mxCell>
                <mxCell id="7" value="" style="endArrow=block;dashed=1;endFill=0;endSize=12;html=1;entryX=0.5;entryY=1;entryDx=0;entryDy=0;exitX=0.5;exitY=0;exitDx=0;exitDy=0;" edge="1" parent="1" source="3" target="2">
                    <mxGeometry width="160" relative="1" as="geometry">
                        <mxPoint x="290" y="270" as="sourcePoint"/>
                        <mxPoint x="450" y="270" as="targetPoint"/>
                    </mxGeometry>
                </mxCell>
                <mxCell id="16" value="1" style="endArrow=open;html=1;endSize=12;startArrow=diamondThin;startSize=14;startFill=0;edgeStyle=orthogonalEdgeStyle;align=left;verticalAlign=bottom;entryX=0;entryY=0.25;entryDx=0;entryDy=0;exitX=0;exitY=0.5;exitDx=0;exitDy=0;noLabel=1;fontColor=none;" edge="1" parent="1" source="4" target="2">
                    <mxGeometry x="-1" y="3" relative="1" as="geometry">
                        <mxPoint x="90" y="270" as="sourcePoint"/>
                        <mxPoint x="250" y="270" as="targetPoint"/>
                        <Array as="points">
                            <mxPoint x="210" y="269"/>
                            <mxPoint x="210" y="113"/>
                        </Array>
                    </mxGeometry>
                </mxCell>
                <mxCell id="17" value="Extends" style="endArrow=block;endSize=16;endFill=0;html=1;noLabel=1;fontColor=none;entryX=0.5;entryY=1;entryDx=0;entryDy=0;exitX=0.5;exitY=0;exitDx=0;exitDy=0;" edge="1" parent="1" source="32" target="3">
                    <mxGeometry width="160" relative="1" as="geometry">
                        <mxPoint x="380" y="379.9999999999999" as="sourcePoint"/>
                        <mxPoint x="440" y="380" as="targetPoint"/>
                    </mxGeometry>
                </mxCell>
                <mxCell id="23" value="JuniorSupport" style="swimlane;fontStyle=1;align=center;verticalAlign=top;childLayout=stackLayout;horizontal=1;startSize=26;horizontalStack=0;resizeParent=1;resizeParentMax=0;resizeLast=0;collapsible=1;marginBottom=0;fontColor=#f0f0f0;" vertex="1" parent="1">
                    <mxGeometry x="310" y="400" width="160" height="80" as="geometry"/>
                </mxCell>
                <mxCell id="25" value="" style="line;strokeWidth=1;fillColor=none;align=left;verticalAlign=middle;spacingTop=-1;spacingLeft=3;spacingRight=3;rotatable=0;labelPosition=right;points=[];portConstraint=eastwest;" vertex="1" parent="23">
                    <mxGeometry y="26" width="160" height="8" as="geometry"/>
                </mxCell>
                <mxCell id="26" value="+ handle(request)" style="text;strokeColor=none;align=left;verticalAlign=top;spacingLeft=4;spacingRight=4;overflow=hidden;rotatable=0;points=[[0,0.5],[1,0.5]];portConstraint=eastwest;fillColor=#2a2a2a;" vertex="1" parent="23">
                    <mxGeometry y="34" width="160" height="46" as="geometry"/>
                </mxCell>
                <mxCell id="32" value="Bot" style="swimlane;fontStyle=1;align=center;verticalAlign=top;childLayout=stackLayout;horizontal=1;startSize=26;horizontalStack=0;resizeParent=1;resizeParentMax=0;resizeLast=0;collapsible=1;marginBottom=0;labelBackgroundColor=none;fontColor=#f0f0f0;strokeColor=#f0f0f0;fillColor=#2a2a2a;gradientColor=none;" vertex="1" parent="1">
                    <mxGeometry x="300" y="390" width="160" height="74" as="geometry"/>
                </mxCell>
                <mxCell id="33" value="" style="text;strokeColor=none;align=left;verticalAlign=top;spacingLeft=4;spacingRight=4;overflow=hidden;rotatable=0;points=[[0,0.5],[1,0.5]];portConstraint=eastwest;fillColor=#2a2a2a;" vertex="1" parent="32">
                    <mxGeometry y="26" width="160" height="14" as="geometry"/>
                </mxCell>
                <mxCell id="34" value="" style="line;strokeWidth=1;fillColor=none;align=left;verticalAlign=middle;spacingTop=-1;spacingLeft=3;spacingRight=3;rotatable=0;labelPosition=right;points=[];portConstraint=eastwest;" vertex="1" parent="32">
                    <mxGeometry y="40" width="160" height="8" as="geometry"/>
                </mxCell>
                <mxCell id="35" value="+ handle(request)" style="text;strokeColor=none;align=left;verticalAlign=top;spacingLeft=4;spacingRight=4;overflow=hidden;rotatable=0;points=[[0,0.5],[1,0.5]];portConstraint=eastwest;fillColor=#2a2a2a;" vertex="1" parent="32">
                    <mxGeometry y="48" width="160" height="26" as="geometry"/>
                </mxCell>
            </root>
        </mxGraphModel>
    </diagram>
</mxfile>